<svg width="15" height="14" viewBox="0 0 15 14" fill="none" xmlns="http://www.w3.org/2000/svg">
<g id="devicon:google" clip-path="url(#clip0_281_2871)">
<path id="Vector" d="M5.37695 0.460467C3.97813 0.945729 2.77179 1.86677 1.93513 3.08831C1.09846 4.30985 0.675565 5.7675 0.728558 7.24715C0.781551 8.7268 1.30764 10.1505 2.22955 11.309C3.15146 12.4676 4.42059 13.3 5.85054 13.6839C7.00983 13.983 8.22443 13.9962 9.38992 13.7222C10.4457 13.485 11.4219 12.9777 12.2227 12.25C13.0563 11.4694 13.6613 10.4765 13.9727 9.37781C14.3113 8.18307 14.3715 6.92664 14.1488 5.705H7.63882V8.40547H11.409C11.3336 8.83617 11.1722 9.24725 10.9342 9.6141C10.6963 9.98094 10.3868 10.296 10.0243 10.5405C9.56391 10.845 9.04494 11.0499 8.5007 11.142C7.95486 11.2435 7.39498 11.2435 6.84914 11.142C6.2959 11.0276 5.77256 10.7993 5.31242 10.4716C4.5732 9.9483 4.01816 9.20492 3.72648 8.3475C3.42987 7.47402 3.42987 6.52707 3.72648 5.65359C3.9341 5.04133 4.27733 4.48387 4.73054 4.02281C5.24919 3.4855 5.90581 3.10143 6.62837 2.91274C7.35093 2.72404 8.1115 2.73802 8.82664 2.95312C9.38529 3.12461 9.89616 3.42424 10.3185 3.82812C10.7436 3.40521 11.168 2.9812 11.5916 2.55609C11.8104 2.3275 12.0488 2.10984 12.2643 1.87578C11.6196 1.27583 10.8629 0.808998 10.0374 0.502029C8.53428 -0.0437632 6.88958 -0.0584308 5.37695 0.460467Z" fill="white"/>
<path id="Vector_2" d="M5.37691 0.460434C6.88942 -0.0588166 8.53412 -0.044535 10.0374 0.500902C10.863 0.809956 11.6194 1.27904 12.2632 1.88121C12.0444 2.11528 11.8136 2.33403 11.5905 2.56153C11.1661 2.98517 10.7421 3.40736 10.3185 3.82809C9.89612 3.42421 9.38525 3.12458 8.8266 2.95309C8.1117 2.73723 7.35115 2.72245 6.6284 2.91037C5.90565 3.09829 5.24863 3.48166 4.72941 4.0184C4.2762 4.47946 3.93297 5.03692 3.72535 5.64918L1.45801 3.89371C2.26958 2.28433 3.67476 1.05327 5.37691 0.460434Z" fill="#E33629"/>
<path id="Vector_3" d="M0.856569 5.63282C0.978436 5.02884 1.18076 4.44394 1.45813 3.89375L3.72548 5.6536C3.42887 6.52707 3.42887 7.47403 3.72548 8.3475C2.97006 8.93084 2.21428 9.51709 1.45813 10.1063C0.763765 8.7241 0.551995 7.1493 0.856569 5.63282Z" fill="#F8BD00"/>
<path id="Vector_4" d="M7.63891 5.7039H14.1489C14.3716 6.92555 14.3114 8.18198 13.9728 9.37672C13.6614 10.4754 13.0563 11.4683 12.2228 12.2489C11.4911 11.678 10.7561 11.1114 10.0244 10.5405C10.3872 10.2958 10.6968 9.98035 10.9347 9.61311C11.1727 9.24587 11.334 8.83437 11.4091 8.40328H7.63891C7.63782 7.50422 7.63891 6.60406 7.63891 5.7039Z" fill="#587DBD"/>
<path id="Vector_5" d="M1.45703 10.1062C2.21318 9.52289 2.96896 8.93664 3.72438 8.34747C4.01663 9.20519 4.57247 9.94861 5.3125 10.4715C5.77407 10.7978 6.29855 11.0242 6.8525 11.1365C7.39834 11.238 7.95822 11.238 8.50406 11.1365C9.04831 11.0444 9.56728 10.8395 10.0277 10.535C10.7594 11.1059 11.4944 11.6725 12.2261 12.2434C11.4254 12.9715 10.4492 13.4792 9.39328 13.7167C8.22779 13.9907 7.0132 13.9775 5.85391 13.6784C4.93702 13.4336 4.08058 13.002 3.33828 12.4108C2.5526 11.787 1.91089 11.0009 1.45703 10.1062Z" fill="#319F43"/>
</g>
<defs>
<clipPath id="clip0_281_2871">
<rect width="14" height="14" fill="white" transform="translate(0.5)"/>
</clipPath>
</defs>
</svg>
